<svg width="8" height="26" viewBox="0 0 8 26" fill="none" xmlns="http://www.w3.org/2000/svg">
<line x1="0.5" y1="-0.5" x2="3.5634" y2="-0.5" transform="matrix(-0.120971 0.992656 -0.995335 -0.0964814 1.42578 19.6592)" stroke="#BF491B" stroke-linecap="round"/>
<path d="M3.01937 19.1494L5.12867 24.7686" stroke="#BF491B" stroke-linecap="round"/>
<path d="M4.12721 18.1047L7.18431 21.1598" stroke="#BF491B" stroke-linecap="round"/>
<path d="M0.234597 17.9186C-0.0251605 18.1612 -0.0418344 18.515 0.234598 18.7426C0.51103 18.9701 0.641699 18.9852 0.901457 18.7426L6.72401 13.3047C6.97333 13.0719 6.97229 12.7091 6.72165 12.4777L0.867666 7.07446C0.606529 6.83343 0.480656 6.84526 0.205527 7.07445C-0.0696018 7.30365 -0.0556111 7.66342 0.205527 7.90445L5.61296 12.8956L0.234597 17.9186Z" fill="#BF491B"/>
<line x1="0.5" y1="-0.5" x2="3.5634" y2="-0.5" transform="matrix(-0.120971 -0.992656 -0.995335 0.0964814 1.42578 6.2749)" stroke="#BF491B" stroke-linecap="round"/>
<path d="M3.01937 6.78417L5.12867 1.16504" stroke="#BF491B" stroke-linecap="round"/>
<path d="M4.12721 7.82891L7.18431 4.77375" stroke="#BF491B" stroke-linecap="round"/>
</svg>
