<svg width="32" height="32" viewBox="0 0 32 32" fill="none" xmlns="http://www.w3.org/2000/svg">
<path d="M15.9404 0.282715C20.3421 0.282715 24.3272 2.05804 27.212 4.92846C30.0968 7.79861 31.881 11.7641 31.881 16.1437C31.881 20.5238 30.0968 24.4888 27.212 27.3589C24.3272 30.2294 20.3421 32.0047 15.9404 32.0047C11.5386 32.0047 7.55351 30.2294 4.66899 27.3589C1.78421 24.4888 0 20.5235 0 16.1434C0 11.7639 1.78421 7.79835 4.66899 4.9282C7.55351 2.05804 11.5386 0.282715 15.9404 0.282715ZM20.7972 9.92967C21.1347 9.59356 21.6824 9.59356 22.02 9.92967C22.3575 10.2655 22.3575 10.8102 22.02 11.1464L16.9968 16.1447L22.02 21.1431C22.3575 21.479 22.3575 22.0237 22.02 22.3598C21.6824 22.6957 21.1347 22.6957 20.7972 22.3598L15.7738 17.3614L10.7504 22.3601C10.4129 22.6959 9.86518 22.6959 9.52764 22.3601C9.1901 22.0239 9.1901 21.4792 9.52764 21.1434L14.5513 16.145L9.52764 11.1464C9.1901 10.8102 9.1901 10.2655 9.52764 9.92967C9.86518 9.59356 10.4129 9.59356 10.7504 9.92967L15.7741 14.9281L20.7972 9.92967ZM25.9892 6.14488C23.4176 3.58605 19.8648 2.00357 15.9404 2.00357C12.016 2.00357 8.46339 3.58605 5.89176 6.14488C3.32013 8.7037 1.72947 12.2389 1.72947 16.1434C1.72947 20.0483 3.32013 23.5834 5.8915 26.1423C8.46313 28.7008 12.0157 30.2836 15.9401 30.2836C19.8645 30.2836 23.4173 28.7008 25.989 26.1423C28.5606 23.5834 30.1513 20.0483 30.1513 16.1434C30.1515 12.2389 28.5609 8.7037 25.9892 6.14488Z" fill="#25797E"/>
</svg>
