<svg width="19" height="19" viewBox="0 0 19 19" fill="none" xmlns="http://www.w3.org/2000/svg">
<circle cx="9.49922" cy="9.49995" r="8.55" fill="#66D4E5"/>
<path d="M9.5 0C12.1236 0 14.4984 1.06302 16.2173 2.78273C17.9362 4.50164 19 6.87724 19 9.5C19 12.1228 17.937 14.4984 16.2173 16.2173C14.4984 17.9362 12.1228 19 9.5 19C6.87644 19 4.50164 17.937 2.78273 16.2173C1.06302 14.4984 0 12.1228 0 9.5C0 6.87724 1.06302 4.50164 2.78273 2.78273C4.50164 1.06302 6.87644 0 9.5 0ZM8.72333 4.81519C8.72333 4.52804 8.95609 4.29528 9.24324 4.29528C9.5304 4.29528 9.76315 4.52804 9.76315 4.81519V9.61438L13.3737 11.7548C13.6201 11.9004 13.7025 12.2187 13.5569 12.4659C13.4113 12.7123 13.093 12.7946 12.8458 12.6491L9.00728 10.3735C8.83851 10.2871 8.72333 10.1119 8.72333 9.91033V4.81519ZM15.4822 3.51781C13.9513 1.98687 11.8364 1.03982 9.5 1.03982C7.16359 1.03982 5.04875 1.98687 3.51781 3.51781C1.98687 5.04875 1.03982 7.16359 1.03982 9.5C1.03982 11.8364 1.98687 13.9513 3.51781 15.4822C5.04875 17.0131 7.16359 17.9602 9.5 17.9602C11.8364 17.9602 13.9513 17.0131 15.4822 15.4822C17.0131 13.9513 17.9602 11.8364 17.9602 9.5C17.9602 7.16359 17.0131 5.04875 15.4822 3.51781Z" fill="#E9E9E9"/>
</svg>
