<svg width="65" height="23" viewBox="0 0 65 23" fill="none" xmlns="http://www.w3.org/2000/svg">
<line x1="1" y1="-1" x2="9.68481" y2="-1" transform="matrix(-0.992656 -0.120971 0.0964814 -0.995335 14.8711 6.37854)" stroke="black" stroke-width="2" stroke-linecap="round"/>
<path d="M16.2105 10.5698L1.4349 16.1162" stroke="black" stroke-width="2" stroke-linecap="round"/>
<path d="M18.9581 13.4816L10.9245 21.5203" stroke="black" stroke-width="2" stroke-linecap="round"/>
<path d="M17.6917 1.51067C17.7296 1.45006 17.7892 1.36398 17.8862 1.24349C18.0036 1.09768 18.0943 1.08684 18.1377 1.08747C18.1971 1.08842 18.33 1.11869 18.4869 1.29054L31.402 15.433L32.1456 16.2462L32.8834 15.4286L45.7163 1.2098C45.8664 1.04353 45.9987 1.01132 46.0644 1.01053C46.1175 1.00989 46.2145 1.02631 46.3324 1.17087C46.4242 1.2836 46.4809 1.36683 46.5187 1.4252C46.4858 1.46983 46.438 1.53139 46.3659 1.6112L32.473 17.004C32.2738 17.2247 32.0281 17.2253 31.8275 17.0059L17.8456 1.69478C17.7724 1.61466 17.7238 1.5544 17.6917 1.51067Z" fill="black" stroke="black" stroke-width="2"/>
<line x1="1" y1="-1" x2="9.68481" y2="-1" transform="matrix(0.992656 -0.120971 -0.0964814 -0.995335 50.0645 6.37854)" stroke="black" stroke-width="2" stroke-linecap="round"/>
<path d="M48.725 10.5698L63.5006 16.1162" stroke="black" stroke-width="2" stroke-linecap="round"/>
<path d="M45.9754 13.4816L54.0091 21.5203" stroke="black" stroke-width="2" stroke-linecap="round"/>
</svg>
