<svg width="29" height="28" viewBox="0 0 29 28" fill="none" xmlns="http://www.w3.org/2000/svg">
<g clip-path="url(#clip0_44_96)">
<path d="M0 3.25301C0 2.31023 0.326586 1.53245 0.97973 0.919679C1.63287 0.306876 2.48199 0.000488281 3.52703 0.000488281C4.55342 0.000488281 5.38384 0.302152 6.01834 0.905537C6.67148 1.52776 6.99807 2.33851 6.99807 3.33786C6.99807 4.24291 6.68083 4.99709 6.04633 5.60048C5.39319 6.2227 4.53475 6.53381 3.47104 6.53381H3.44305C2.41666 6.53381 1.58624 6.2227 0.951737 5.60048C0.317236 4.97826 0 4.19576 0 3.25301ZM0.3639 28.0004V9.10754H6.57819V28.0004H0.3639ZM10.0212 28.0004H16.2355V17.451C16.2355 16.791 16.3102 16.2819 16.4595 15.9237C16.7207 15.2826 17.1173 14.7405 17.6491 14.2974C18.181 13.8543 18.8481 13.6328 19.6506 13.6328C21.7407 13.6328 22.7857 15.0563 22.7857 17.9035V28.0004H29V17.1681C29 14.3776 28.3469 12.2611 27.0405 10.8187C25.7342 9.37623 24.0081 8.65502 21.862 8.65502C19.4546 8.65502 17.5791 9.70148 16.2355 11.7944V11.851H16.2075L16.2355 11.7944V9.10754H10.0212C10.0585 9.7109 10.0772 11.587 10.0772 14.7358C10.0772 17.8846 10.0585 22.3062 10.0212 28.0004Z" fill="#BFCFD3"/>
</g>
<defs>
<clipPath id="clip0_44_96">
<rect width="29" height="28" fill="white"/>
</clipPath>
</defs>
</svg>
