<svg width="30" height="22" viewBox="0 0 30 22" fill="none" xmlns="http://www.w3.org/2000/svg">
<g clip-path="url(#clip0_44_98)">
<path d="M0 2.58569V1.83333C0 1.3471 0.197544 0.880788 0.549175 0.536971C0.900806 0.193154 1.37772 0 1.875 0L28.125 0C28.6223 0 29.0992 0.193154 29.4508 0.536971C29.8025 0.880788 30 1.3471 30 1.83333V2.58569L15 11.7524L0 2.58569ZM15.4969 13.6109C15.3478 13.7018 15.1757 13.7501 15 13.7501C14.8243 13.7501 14.6522 13.7018 14.5031 13.6109L0 4.74765V20.1667C0 20.6529 0.197544 21.1192 0.549175 21.463C0.900806 21.8068 1.37772 22 1.875 22H28.125C28.6223 22 29.0992 21.8068 29.4508 21.463C29.8025 21.1192 30 20.6529 30 20.1667V4.74765L15.4969 13.6109Z" fill="#BFCFD3"/>
</g>
<defs>
<clipPath id="clip0_44_98">
<rect width="30" height="22" fill="white"/>
</clipPath>
</defs>
</svg>
