<svg width="32" height="29" viewBox="0 0 32 29" fill="none" xmlns="http://www.w3.org/2000/svg">
<path d="M30.9312 0.683528C30.5171 0.341676 30.0172 0.11763 29.485 0.0352352C28.9527 -0.0471597 28.4078 0.0151792 27.9084 0.215618L1.84096 10.6579C1.28349 10.8855 0.808957 11.2759 0.480343 11.7773C0.151729 12.2787 -0.015426 12.8674 0.00106537 13.4653C0.0175567 14.0632 0.216915 14.642 0.572677 15.1248C0.92844 15.6076 1.42379 15.9717 1.99296 16.1687L7.26583 17.9882L10.2048 27.6314C10.2448 27.7602 10.3027 27.8828 10.377 27.9957C10.3883 28.013 10.4042 28.0259 10.4162 28.0427C10.502 28.1615 10.6057 28.2665 10.7237 28.3541C10.7573 28.3795 10.7894 28.4032 10.8253 28.4258C10.9634 28.5167 11.1163 28.5831 11.2772 28.6222L11.2945 28.6237L11.3042 28.6278C11.401 28.6473 11.4995 28.6573 11.5983 28.6574C11.6078 28.6574 11.6162 28.6529 11.6256 28.6527C11.7747 28.6501 11.9224 28.6247 12.0636 28.5772C12.0964 28.5661 12.1246 28.5476 12.1564 28.5342C12.2617 28.4909 12.3615 28.4354 12.4536 28.3688C12.5274 28.3071 12.6012 28.2455 12.675 28.1838L16.6055 23.8781L22.4679 28.384C22.984 28.7827 23.6193 28.9994 24.2733 28.9999C24.9587 28.999 25.6229 28.7644 26.1547 28.3353C26.6864 27.9063 27.0533 27.3089 27.1939 26.6433L31.9397 3.52772C32.0473 3.00746 32.0103 2.46798 31.8326 1.96699C31.655 1.46601 31.3434 1.02236 30.9312 0.683528ZM13.0911 18.762L12.3638 20.9268L11.7787 23.0917L10.188 17.606L24.0004 7.21611L13.0911 18.762Z" fill="#BFCFD3"/>
</svg>
