<svg width="107" height="127" viewBox="0 0 107 127" fill="none" xmlns="http://www.w3.org/2000/svg">
<path d="M4.93 30.969H27.41V26.261C27.5429 19.327 30.3158 12.7231 35.1332 7.86763C39.9506 3.01216 46.4283 0.292358 53.175 0.292358C59.9217 0.292358 66.3994 3.01216 71.2168 7.86763C76.0342 12.7231 78.8071 19.327 78.94 26.261V30.969H101.6C102.245 30.9709 102.884 31.1035 103.479 31.3592C104.075 31.615 104.615 31.9889 105.07 32.4595C105.528 32.9287 105.891 33.4863 106.138 34.1003C106.385 34.7142 106.511 35.3724 106.51 36.0368V107.891C106.497 112.712 104.628 117.332 101.311 120.742C97.9947 124.151 93.5003 126.072 88.81 126.086H17.7C13.0115 126.072 8.51855 124.152 5.2023 120.745C1.88605 117.338 0.0158301 112.721 0 107.901L0 36.0471C0.000494055 35.382 0.12885 34.7236 0.377691 34.1097C0.626532 33.4958 0.99095 32.9385 1.45 32.4698C1.90473 31.9992 2.44526 31.6253 3.04067 31.3695C3.63608 31.1137 4.2747 30.9811 4.92 30.9793L4.93 30.969ZM33.69 30.969H72.69V26.261C72.69 20.9447 70.6355 15.8461 66.9786 12.0869C63.3216 8.32772 58.3617 6.21583 53.19 6.21583C48.0183 6.21583 43.0584 8.32772 39.4014 12.0869C35.7445 15.8461 33.69 20.9447 33.69 26.261V30.969ZM27.41 44.3324V37.4246H6.28V101.158H100.28V37.4246H78.94V44.3735C80.1828 45.1136 81.1511 46.2572 81.6929 47.6245C82.2347 48.9918 82.3193 50.5054 81.9333 51.9275C81.5473 53.3496 80.7127 54.5996 79.5605 55.481C78.4083 56.3625 77.0039 56.8255 75.5679 56.7973C74.1319 56.7691 72.7457 56.2513 71.6272 55.3252C70.5086 54.3991 69.721 53.1173 69.3881 51.6811C69.0553 50.2449 69.196 48.7357 69.7883 47.3906C70.3805 46.0456 71.3906 44.9409 72.66 44.2502V37.4246H33.66V44.3221C34.9164 45.0376 35.906 46.1619 36.4732 47.5183C37.0405 48.8747 37.1532 50.3865 36.7938 51.8159C36.4344 53.2454 35.6231 54.5116 34.4875 55.4156C33.3519 56.3196 31.9563 56.8102 30.52 56.8102C29.0837 56.8102 27.6881 56.3196 26.5525 55.4156C25.4169 54.5116 24.6056 53.2454 24.2462 51.8159C23.8867 50.3865 23.9995 48.8747 24.5668 47.5183C25.134 46.1619 26.1236 45.0376 27.38 44.3221L27.41 44.3324Z" fill="#25797E"/>
</svg>
