<svg width="122" height="34" viewBox="0 0 122 34" fill="none" xmlns="http://www.w3.org/2000/svg">
<path d="M50.1562 10.625H54.1797C55.0443 10.625 55.7812 10.7552 56.3906 11.0156C57 11.276 57.4661 11.6615 57.7891 12.1719C58.1172 12.6771 58.2812 13.3021 58.2812 14.0469C58.2812 14.6146 58.1771 15.1146 57.9688 15.5469C57.7604 15.9792 57.4661 16.3438 57.0859 16.6406C56.7057 16.9323 56.2526 17.1589 55.7266 17.3203L55.1328 17.6094H51.5156L51.5 16.0547H54.2109C54.6797 16.0547 55.0703 15.9714 55.3828 15.8047C55.6953 15.638 55.9297 15.4115 56.0859 15.125C56.2474 14.8333 56.3281 14.5052 56.3281 14.1406C56.3281 13.7448 56.25 13.401 56.0938 13.1094C55.9427 12.8125 55.7083 12.5859 55.3906 12.4297C55.0729 12.2682 54.6693 12.1875 54.1797 12.1875H52.1172V22H50.1562V10.625ZM56.6484 22L53.9766 16.8906L56.0312 16.8828L58.7422 21.8984V22H56.6484ZM65.1328 20.0078V13.5469H67.0234V22H65.2422L65.1328 20.0078ZM65.3984 18.25L66.0312 18.2344C66.0312 18.8021 65.9688 19.3255 65.8438 19.8047C65.7188 20.2786 65.526 20.6927 65.2656 21.0469C65.0052 21.3958 64.6719 21.6693 64.2656 21.8672C63.8594 22.0599 63.3724 22.1562 62.8047 22.1562C62.3932 22.1562 62.0156 22.0964 61.6719 21.9766C61.3281 21.8568 61.0312 21.6719 60.7812 21.4219C60.5365 21.1719 60.3464 20.8464 60.2109 20.4453C60.0755 20.0443 60.0078 19.5651 60.0078 19.0078V13.5469H61.8906V19.0234C61.8906 19.3307 61.9271 19.5885 62 19.7969C62.0729 20 62.1719 20.1641 62.2969 20.2891C62.4219 20.4141 62.5677 20.5026 62.7344 20.5547C62.901 20.6068 63.0781 20.6328 63.2656 20.6328C63.8021 20.6328 64.224 20.5286 64.5312 20.3203C64.8438 20.1068 65.0651 19.8203 65.1953 19.4609C65.3307 19.1016 65.3984 18.6979 65.3984 18.25ZM73.6953 19.7109C73.6953 19.5234 73.6484 19.3542 73.5547 19.2031C73.4609 19.0469 73.2812 18.9062 73.0156 18.7812C72.7552 18.6562 72.3698 18.5417 71.8594 18.4375C71.4115 18.3385 71 18.2214 70.625 18.0859C70.2552 17.9453 69.9375 17.776 69.6719 17.5781C69.4062 17.3802 69.2005 17.1458 69.0547 16.875C68.9089 16.6042 68.8359 16.2917 68.8359 15.9375C68.8359 15.5938 68.9115 15.2682 69.0625 14.9609C69.2135 14.6536 69.4297 14.3828 69.7109 14.1484C69.9922 13.9141 70.3333 13.7292 70.7344 13.5938C71.1406 13.4583 71.5938 13.3906 72.0938 13.3906C72.8021 13.3906 73.4089 13.5104 73.9141 13.75C74.4245 13.9844 74.8151 14.3047 75.0859 14.7109C75.3568 15.112 75.4922 15.5651 75.4922 16.0703H73.6094C73.6094 15.8464 73.5521 15.638 73.4375 15.4453C73.3281 15.2474 73.1615 15.0885 72.9375 14.9688C72.7135 14.8438 72.4323 14.7812 72.0938 14.7812C71.7708 14.7812 71.5026 14.8333 71.2891 14.9375C71.0807 15.0365 70.9245 15.1667 70.8203 15.3281C70.7214 15.4896 70.6719 15.6667 70.6719 15.8594C70.6719 16 70.6979 16.1276 70.75 16.2422C70.8073 16.3516 70.901 16.4531 71.0312 16.5469C71.1615 16.6354 71.3385 16.7188 71.5625 16.7969C71.7917 16.875 72.0781 16.9505 72.4219 17.0234C73.0677 17.1589 73.6224 17.3333 74.0859 17.5469C74.5547 17.7552 74.9141 18.026 75.1641 18.3594C75.4141 18.6875 75.5391 19.1042 75.5391 19.6094C75.5391 19.9844 75.4583 20.3281 75.2969 20.6406C75.1406 20.9479 74.9115 21.2161 74.6094 21.4453C74.3073 21.6693 73.9453 21.8438 73.5234 21.9688C73.1068 22.0938 72.638 22.1562 72.1172 22.1562C71.3516 22.1562 70.7031 22.0208 70.1719 21.75C69.6406 21.474 69.237 21.1224 68.9609 20.6953C68.6901 20.263 68.5547 19.8151 68.5547 19.3516H70.375C70.3958 19.7005 70.4922 19.9792 70.6641 20.1875C70.8411 20.3906 71.0599 20.5391 71.3203 20.6328C71.5859 20.7214 71.8594 20.7656 72.1406 20.7656C72.4792 20.7656 72.763 20.7214 72.9922 20.6328C73.2214 20.5391 73.3958 20.4141 73.5156 20.2578C73.6354 20.0964 73.6953 19.9141 73.6953 19.7109ZM80.9766 16.3906V17.8906H76.8438V16.3906H80.9766ZM89.9375 20.4453V22H84.2266V20.4453H89.9375ZM84.7734 10.625V22H82.8125V10.625H84.7734ZM96.0391 12.1406L92.6406 22H90.5859L94.8672 10.625H96.1797L96.0391 12.1406ZM98.8828 22L95.4766 12.1406L95.3281 10.625H96.6484L100.945 22H98.8828ZM98.7188 17.7812V19.3359H92.5312V17.7812H98.7188ZM108.203 19.0703C108.203 18.8359 108.167 18.6276 108.094 18.4453C108.026 18.263 107.904 18.0964 107.727 17.9453C107.549 17.7943 107.299 17.6484 106.977 17.5078C106.659 17.362 106.253 17.2135 105.758 17.0625C105.216 16.8958 104.716 16.7109 104.258 16.5078C103.805 16.2995 103.409 16.0599 103.07 15.7891C102.732 15.513 102.469 15.1979 102.281 14.8438C102.094 14.4844 102 14.0703 102 13.6016C102 13.138 102.096 12.7161 102.289 12.3359C102.487 11.9557 102.766 11.6276 103.125 11.3516C103.49 11.0703 103.919 10.8542 104.414 10.7031C104.909 10.5469 105.456 10.4688 106.055 10.4688C106.898 10.4688 107.625 10.625 108.234 10.9375C108.849 11.25 109.32 11.6693 109.648 12.1953C109.982 12.7214 110.148 13.3021 110.148 13.9375H108.203C108.203 13.5625 108.122 13.2318 107.961 12.9453C107.805 12.6536 107.565 12.4245 107.242 12.2578C106.924 12.0911 106.521 12.0078 106.031 12.0078C105.568 12.0078 105.182 12.0781 104.875 12.2188C104.568 12.3594 104.339 12.5495 104.188 12.7891C104.036 13.0286 103.961 13.2995 103.961 13.6016C103.961 13.8151 104.01 14.0104 104.109 14.1875C104.208 14.3594 104.359 14.5208 104.562 14.6719C104.766 14.8177 105.021 14.9557 105.328 15.0859C105.635 15.2161 105.997 15.3411 106.414 15.4609C107.044 15.6484 107.594 15.8568 108.062 16.0859C108.531 16.3099 108.922 16.5651 109.234 16.8516C109.547 17.138 109.781 17.4635 109.938 17.8281C110.094 18.1875 110.172 18.5964 110.172 19.0547C110.172 19.5339 110.076 19.9661 109.883 20.3516C109.69 20.7318 109.414 21.0573 109.055 21.3281C108.701 21.5938 108.273 21.7995 107.773 21.9453C107.279 22.0859 106.727 22.1562 106.117 22.1562C105.57 22.1562 105.031 22.0833 104.5 21.9375C103.974 21.7917 103.495 21.5703 103.062 21.2734C102.63 20.9714 102.286 20.5964 102.031 20.1484C101.776 19.6953 101.648 19.1667 101.648 18.5625H103.609C103.609 18.9323 103.672 19.2474 103.797 19.5078C103.927 19.7682 104.107 19.9818 104.336 20.1484C104.565 20.3099 104.831 20.4297 105.133 20.5078C105.44 20.5859 105.768 20.625 106.117 20.625C106.576 20.625 106.958 20.5599 107.266 20.4297C107.578 20.2995 107.812 20.1172 107.969 19.8828C108.125 19.6484 108.203 19.3776 108.203 19.0703ZM116.336 12.1406L112.938 22H110.883L115.164 10.625H116.477L116.336 12.1406ZM119.18 22L115.773 12.1406L115.625 10.625H116.945L121.242 22H119.18ZM119.016 17.7812V19.3359H112.828V17.7812H119.016Z" fill="white"/>
<path fill-rule="evenodd" clip-rule="evenodd" d="M3.23892 8.75291L6.92362 4.80517L11.556 9.70155L7.85127 13.658L3.23892 8.75291Z" fill="url(#paint0_linear_83_18)"/>
<path fill-rule="evenodd" clip-rule="evenodd" d="M31.9664 13.4176L28.1716 9.52349L32.9304 4.74378L36.5245 8.53594L31.9664 13.4176Z" fill="url(#paint1_linear_83_18)"/>
<path fill-rule="evenodd" clip-rule="evenodd" d="M11.4 0.114651L6.92362 4.80517L16.9838 15.4386C17.7603 16.1739 18.7007 17.0639 19.603 17.0622C20.5054 17.0606 21.4851 16.2008 22.3558 15.3646L32.9304 4.74378L28.4524 0L19.6742 8.7782L11.4 0.114651Z" fill="url(#paint2_linear_83_18)"/>
<path fill-rule="evenodd" clip-rule="evenodd" d="M19.7157 8.82177L11.4 0.114736L19.6031 17.0622L19.7157 8.82177Z" fill="url(#paint3_linear_83_18)"/>
<path fill-rule="evenodd" clip-rule="evenodd" d="M3.23893 8.7529L15.8832 30.6922L19.8611 26.4302L3.23893 8.7529Z" fill="url(#paint4_linear_83_18)"/>
<path fill-rule="evenodd" clip-rule="evenodd" d="M0.00126882 13.1337C0.0173088 13.9897 0.381144 14.4281 1.00093 15.0103L15.8927 30.7089L3.23892 8.75291L0.898736 11.2119C0.113228 12.0259 -0.0147925 12.2777 0.00126882 13.1337Z" fill="url(#paint5_linear_83_18)"/>
<path fill-rule="evenodd" clip-rule="evenodd" d="M36.5245 8.53594L37.119 9.1632C38.1396 10.2221 39.6215 11.4616 39.6064 12.6227C39.5912 13.7838 38.6061 14.7095 37.6163 15.6849L22.0767 32.2356C21.5652 32.6633 20.8919 33.38 20.037 33.4499C19.182 33.5199 18.4067 33.1341 17.7804 32.5258L15.8587 30.6686L36.5245 8.53594Z" fill="url(#paint6_linear_83_18)"/>
<path fill-rule="evenodd" clip-rule="evenodd" d="M24.3531 28.6183L17.838 32.4459L32.8318 12.4781L30.1405 19.0591L24.3531 28.6183Z" fill="url(#paint7_linear_83_18)"/>
<path fill-rule="evenodd" clip-rule="evenodd" d="M35.8594 17.5636L22.3566 31.9371L36.5245 8.53594L35.8594 17.5636Z" fill="url(#paint8_linear_83_18)"/>
<path fill-rule="evenodd" clip-rule="evenodd" d="M30.1036 19.0591L24.3161 28.6183L26.7883 27.1659L30.1036 19.0591Z" fill="url(#paint9_linear_83_18)"/>
<defs>
<linearGradient id="paint0_linear_83_18" x1="10.8817" y1="5.75167" x2="3.89163" y2="12.7414" gradientUnits="userSpaceOnUse">
<stop stop-color="#8A9199"/>
<stop offset="0.670588" stop-color="#CBCDCB"/>
<stop offset="1" stop-color="#DFE0E2"/>
</linearGradient>
<linearGradient id="paint1_linear_83_18" x1="30.2815" y1="6.00541" x2="37.2713" y2="12.9954" gradientUnits="userSpaceOnUse">
<stop stop-color="#8A9199"/>
<stop offset="0.670588" stop-color="#CBCDCB"/>
<stop offset="1" stop-color="#D8D4D5"/>
</linearGradient>
<linearGradient id="paint2_linear_83_18" x1="10.7322" y1="13.8635" x2="29.1218" y2="-4.52615" gradientUnits="userSpaceOnUse">
<stop stop-color="#3779BC"/>
<stop offset="0.658824" stop-color="#25AAE1"/>
<stop offset="1" stop-color="#70BFEA"/>
</linearGradient>
<linearGradient id="paint3_linear_83_18" x1="9.24215" y1="14.9043" x2="21.8736" y2="2.27278" gradientUnits="userSpaceOnUse">
<stop stop-color="#658EC9"/>
<stop offset="1" stop-color="#649ED5"/>
</linearGradient>
<linearGradient id="paint4_linear_83_18" x1="3.50605" y1="11.1714" x2="19.5542" y2="28.2895" gradientUnits="userSpaceOnUse">
<stop stop-color="#D7E47A"/>
<stop offset="1" stop-color="#B4DA7A"/>
</linearGradient>
<linearGradient id="paint5_linear_83_18" x1="-0.802138" y1="11.4097" x2="15.8402" y2="28.052" gradientUnits="userSpaceOnUse">
<stop stop-color="#C6D92D"/>
<stop offset="1" stop-color="#90C73E"/>
</linearGradient>
<linearGradient id="paint6_linear_83_18" x1="19.4594" y1="30.3094" x2="36.845" y2="12.9239" gradientUnits="userSpaceOnUse">
<stop stop-color="#3D4FA2"/>
<stop offset="0.729412" stop-color="#2698D5"/>
<stop offset="1" stop-color="#20A9E1"/>
</linearGradient>
<linearGradient id="paint7_linear_83_18" x1="19.2167" y1="28.5802" x2="31.4531" y2="16.3438" gradientUnits="userSpaceOnUse">
<stop stop-color="#4D5CAA"/>
<stop offset="1" stop-color="#49A2DB"/>
</linearGradient>
<linearGradient id="paint8_linear_83_18" x1="22.8661" y1="26.811" x2="36.0151" y2="13.662" gradientUnits="userSpaceOnUse">
<stop stop-color="#677ABA"/>
<stop offset="0.85098" stop-color="#65B3E4"/>
<stop offset="1" stop-color="#68B9E7"/>
</linearGradient>
<linearGradient id="paint9_linear_83_18" x1="24.5242" y1="26.5243" x2="29.8954" y2="21.1531" gradientUnits="userSpaceOnUse">
<stop stop-color="#7286C2"/>
<stop offset="1" stop-color="#6EA0D5"/>
</linearGradient>
</defs>
</svg>
