<svg width="163" height="193" viewBox="0 0 163 193" fill="none" xmlns="http://www.w3.org/2000/svg">
<path d="M10.3125 158.188H18.3594C20.0885 158.188 21.5625 158.449 22.7812 158.969C24 159.49 24.9323 160.261 25.5781 161.282C26.2344 162.292 26.5625 163.542 26.5625 165.032C26.5625 166.167 26.3542 167.167 25.9375 168.032C25.5208 168.896 24.9323 169.626 24.1719 170.219C23.4115 170.803 22.5052 171.256 21.4531 171.579L20.2656 172.157H13.0312L13 169.047H18.4219C19.3594 169.047 20.1406 168.881 20.7656 168.547C21.3906 168.214 21.8594 167.761 22.1719 167.188C22.4948 166.605 22.6562 165.949 22.6562 165.219C22.6562 164.428 22.5 163.74 22.1875 163.157C21.8854 162.563 21.4167 162.11 20.7812 161.797C20.1458 161.475 19.3385 161.313 18.3594 161.313H14.2344V180.938H10.3125V158.188ZM23.2969 180.938L17.9531 170.719L22.0625 170.704L27.4844 180.735V180.938H23.2969ZM40.2656 176.954V164.032H44.0469V180.938H40.4844L40.2656 176.954ZM40.7969 173.438L42.0625 173.407C42.0625 174.542 41.9375 175.589 41.6875 176.547C41.4375 177.495 41.0521 178.324 40.5312 179.032C40.0104 179.73 39.3438 180.277 38.5312 180.672C37.7188 181.058 36.7448 181.251 35.6094 181.251C34.7865 181.251 34.0312 181.131 33.3438 180.891C32.6562 180.652 32.0625 180.282 31.5625 179.782C31.0729 179.282 30.6927 178.631 30.4219 177.829C30.151 177.027 30.0156 176.068 30.0156 174.954V164.032H33.7812V174.985C33.7812 175.6 33.8542 176.115 34 176.532C34.1458 176.938 34.3438 177.266 34.5938 177.516C34.8438 177.766 35.1354 177.943 35.4688 178.047C35.8021 178.152 36.1562 178.204 36.5312 178.204C37.6042 178.204 38.4479 177.995 39.0625 177.579C39.6875 177.152 40.1302 176.579 40.3906 175.86C40.6615 175.141 40.7969 174.334 40.7969 173.438ZM57.3906 176.36C57.3906 175.985 57.2969 175.646 57.1094 175.344C56.9219 175.032 56.5625 174.751 56.0312 174.501C55.5104 174.251 54.7396 174.021 53.7188 173.813C52.8229 173.615 52 173.381 51.25 173.11C50.5104 172.829 49.875 172.49 49.3438 172.094C48.8125 171.699 48.401 171.23 48.1094 170.688C47.8177 170.146 47.6719 169.521 47.6719 168.813C47.6719 168.126 47.8229 167.475 48.125 166.86C48.4271 166.245 48.8594 165.704 49.4219 165.235C49.9844 164.766 50.6667 164.396 51.4688 164.126C52.2812 163.855 53.1875 163.719 54.1875 163.719C55.6042 163.719 56.8177 163.959 57.8281 164.438C58.849 164.907 59.6302 165.547 60.1719 166.36C60.7135 167.162 60.9844 168.068 60.9844 169.079H57.2188C57.2188 168.631 57.1042 168.214 56.875 167.829C56.6562 167.433 56.3229 167.115 55.875 166.876C55.4271 166.626 54.8646 166.501 54.1875 166.501C53.5417 166.501 53.0052 166.605 52.5781 166.813C52.1615 167.011 51.849 167.271 51.6406 167.594C51.4427 167.917 51.3438 168.271 51.3438 168.657C51.3438 168.938 51.3958 169.193 51.5 169.422C51.6146 169.641 51.8021 169.844 52.0625 170.032C52.3229 170.209 52.6771 170.376 53.125 170.532C53.5833 170.688 54.1562 170.839 54.8438 170.985C56.1354 171.256 57.2448 171.605 58.1719 172.032C59.1094 172.449 59.8281 172.99 60.3281 173.657C60.8281 174.313 61.0781 175.146 61.0781 176.157C61.0781 176.907 60.9167 177.594 60.5938 178.219C60.2812 178.834 59.8229 179.37 59.2188 179.829C58.6146 180.277 57.8906 180.626 57.0469 180.876C56.2135 181.126 55.276 181.251 54.2344 181.251C52.7031 181.251 51.4062 180.98 50.3438 180.438C49.2812 179.886 48.474 179.183 47.9219 178.329C47.3802 177.464 47.1094 176.568 47.1094 175.641H50.75C50.7917 176.339 50.9844 176.896 51.3281 177.313C51.6823 177.719 52.1198 178.016 52.6406 178.204C53.1719 178.381 53.7188 178.469 54.2812 178.469C54.9583 178.469 55.526 178.381 55.9844 178.204C56.4427 178.016 56.7917 177.766 57.0312 177.454C57.2708 177.131 57.3906 176.766 57.3906 176.36ZM71.9531 169.719V172.719H63.6875V169.719H71.9531ZM89.875 177.829V180.938H78.4531V177.829H89.875ZM79.5469 158.188V180.938H75.625V158.188H79.5469ZM102.078 161.219L95.2812 180.938H91.1719L99.7344 158.188H102.359L102.078 161.219ZM107.766 180.938L100.953 161.219L100.656 158.188H103.297L111.891 180.938H107.766ZM107.438 172.501V175.61H95.0625V172.501H107.438ZM126.406 175.079C126.406 174.61 126.333 174.193 126.188 173.829C126.052 173.464 125.807 173.131 125.453 172.829C125.099 172.527 124.599 172.235 123.953 171.954C123.318 171.662 122.505 171.365 121.516 171.063C120.432 170.73 119.432 170.36 118.516 169.954C117.609 169.537 116.818 169.058 116.141 168.516C115.464 167.964 114.938 167.334 114.562 166.626C114.188 165.907 114 165.079 114 164.141C114 163.214 114.193 162.37 114.578 161.61C114.974 160.85 115.531 160.193 116.25 159.641C116.979 159.079 117.839 158.646 118.828 158.344C119.818 158.032 120.911 157.876 122.109 157.876C123.797 157.876 125.25 158.188 126.469 158.813C127.698 159.438 128.641 160.277 129.297 161.329C129.964 162.381 130.297 163.542 130.297 164.813H126.406C126.406 164.063 126.245 163.402 125.922 162.829C125.609 162.245 125.13 161.787 124.484 161.454C123.849 161.12 123.042 160.954 122.062 160.954C121.135 160.954 120.365 161.094 119.75 161.376C119.135 161.657 118.677 162.037 118.375 162.516C118.073 162.995 117.922 163.537 117.922 164.141C117.922 164.568 118.021 164.959 118.219 165.313C118.417 165.657 118.719 165.98 119.125 166.282C119.531 166.574 120.042 166.85 120.656 167.11C121.271 167.37 121.995 167.62 122.828 167.86C124.089 168.235 125.188 168.652 126.125 169.11C127.062 169.558 127.844 170.068 128.469 170.641C129.094 171.214 129.562 171.865 129.875 172.594C130.188 173.313 130.344 174.131 130.344 175.047C130.344 176.006 130.151 176.87 129.766 177.641C129.38 178.402 128.828 179.053 128.109 179.594C127.401 180.126 126.547 180.537 125.547 180.829C124.557 181.11 123.453 181.251 122.234 181.251C121.141 181.251 120.062 181.105 119 180.813C117.948 180.521 116.99 180.079 116.125 179.485C115.26 178.881 114.573 178.131 114.062 177.235C113.552 176.329 113.297 175.271 113.297 174.063H117.219C117.219 174.803 117.344 175.433 117.594 175.954C117.854 176.475 118.214 176.902 118.672 177.235C119.13 177.558 119.661 177.797 120.266 177.954C120.88 178.11 121.536 178.188 122.234 178.188C123.151 178.188 123.917 178.058 124.531 177.797C125.156 177.537 125.625 177.172 125.938 176.704C126.25 176.235 126.406 175.693 126.406 175.079ZM142.672 161.219L135.875 180.938H131.766L140.328 158.188H142.953L142.672 161.219ZM148.359 180.938L141.547 161.219L141.25 158.188H143.891L152.484 180.938H148.359ZM148.031 172.501V175.61H135.656V172.501H148.031Z" fill="white"/>
<path fill-rule="evenodd" clip-rule="evenodd" d="M13.2776 34.9818L28.3829 19.5634L47.3732 38.6868L32.1857 54.1393L13.2776 34.9818Z" fill="url(#paint0_linear_89_65)"/>
<path fill-rule="evenodd" clip-rule="evenodd" d="M131.045 53.2001L115.488 37.9912L134.996 19.3235L149.73 34.1342L131.045 53.2001Z" fill="url(#paint1_linear_89_65)"/>
<path fill-rule="evenodd" clip-rule="evenodd" d="M46.7339 1.24386L28.3831 19.5632L69.6241 61.0932C72.8076 63.9649 76.6625 67.441 80.3617 67.4346C84.0609 67.4283 88.0772 64.0704 91.6466 60.8044L134.997 19.3235L116.639 0.796082L80.6533 35.0804L46.7339 1.24386Z" fill="url(#paint2_linear_89_65)"/>
<path fill-rule="evenodd" clip-rule="evenodd" d="M80.8236 35.2505L46.7339 1.24417L80.3619 67.4346L80.8236 35.2505Z" fill="url(#paint3_linear_89_65)"/>
<path fill-rule="evenodd" clip-rule="evenodd" d="M13.2776 34.9817L65.1123 120.668L81.4195 104.023L13.2776 34.9817Z" fill="url(#paint4_linear_89_65)"/>
<path fill-rule="evenodd" clip-rule="evenodd" d="M0.00518584 52.0914C0.0709407 55.4346 1.56246 57.1467 4.10326 59.4207L65.1515 120.733L13.2778 34.9817L3.68431 44.5857C0.464156 47.7645 -0.0606566 48.7483 0.00518584 52.0914Z" fill="url(#paint5_linear_89_65)"/>
<path fill-rule="evenodd" clip-rule="evenodd" d="M149.73 34.1343L152.168 36.5841C156.351 40.7198 162.427 45.5608 162.364 50.0957C162.302 54.6306 158.264 58.246 154.206 62.0554L90.5024 126.696C88.4054 128.367 85.6455 131.166 82.1407 131.439C78.6359 131.712 75.4572 130.205 72.8897 127.829L65.0121 120.576L149.73 34.1343Z" fill="url(#paint6_linear_89_65)"/>
<path fill-rule="evenodd" clip-rule="evenodd" d="M99.8341 112.568L73.1258 127.517L134.592 49.531L123.559 75.2339L99.8341 112.568Z" fill="url(#paint7_linear_89_65)"/>
<path fill-rule="evenodd" clip-rule="evenodd" d="M147.004 69.3927L91.65 125.53L149.731 34.1343L147.004 69.3927Z" fill="url(#paint8_linear_89_65)"/>
<path fill-rule="evenodd" clip-rule="evenodd" d="M123.408 75.2338L99.6827 112.568L109.817 106.896L123.408 75.2338Z" fill="url(#paint9_linear_89_65)"/>
<defs>
<linearGradient id="paint0_linear_89_65" x1="44.6087" y1="23.2601" x2="17.3402" y2="51.8806" gradientUnits="userSpaceOnUse">
<stop stop-color="#8A9199"/>
<stop offset="0.670588" stop-color="#CBCDCB"/>
<stop offset="1" stop-color="#DFE0E2"/>
</linearGradient>
<linearGradient id="paint1_linear_89_65" x1="124.138" y1="24.2509" x2="151.405" y2="52.8724" gradientUnits="userSpaceOnUse">
<stop stop-color="#8A9199"/>
<stop offset="0.670588" stop-color="#CBCDCB"/>
<stop offset="1" stop-color="#D8D4D5"/>
</linearGradient>
<linearGradient id="paint2_linear_89_65" x1="43.9962" y1="54.9415" x2="115.735" y2="-20.3575" gradientUnits="userSpaceOnUse">
<stop stop-color="#3779BC"/>
<stop offset="0.658824" stop-color="#25AAE1"/>
<stop offset="1" stop-color="#70BFEA"/>
</linearGradient>
<linearGradient id="paint3_linear_89_65" x1="37.8877" y1="59.0064" x2="87.1636" y2="7.28498" gradientUnits="userSpaceOnUse">
<stop stop-color="#658EC9"/>
<stop offset="1" stop-color="#649ED5"/>
</linearGradient>
<linearGradient id="paint4_linear_89_65" x1="14.3727" y1="44.4274" x2="76.7826" y2="114.302" gradientUnits="userSpaceOnUse">
<stop stop-color="#D7E47A"/>
<stop offset="1" stop-color="#B4DA7A"/>
</linearGradient>
<linearGradient id="paint5_linear_89_65" x1="-3.28834" y1="45.358" x2="61.6343" y2="113.502" gradientUnits="userSpaceOnUse">
<stop stop-color="#C6D92D"/>
<stop offset="1" stop-color="#90C73E"/>
</linearGradient>
<linearGradient id="paint6_linear_89_65" x1="79.773" y1="119.173" x2="147.595" y2="47.9854" gradientUnits="userSpaceOnUse">
<stop stop-color="#3D4FA2"/>
<stop offset="0.729412" stop-color="#2698D5"/>
<stop offset="1" stop-color="#20A9E1"/>
</linearGradient>
<linearGradient id="paint7_linear_89_65" x1="78.7778" y1="112.42" x2="126.513" y2="62.3158" gradientUnits="userSpaceOnUse">
<stop stop-color="#4D5CAA"/>
<stop offset="1" stop-color="#49A2DB"/>
</linearGradient>
<linearGradient id="paint8_linear_89_65" x1="93.7384" y1="105.509" x2="145.033" y2="51.669" gradientUnits="userSpaceOnUse">
<stop stop-color="#677ABA"/>
<stop offset="0.85098" stop-color="#65B3E4"/>
<stop offset="1" stop-color="#68B9E7"/>
</linearGradient>
<linearGradient id="paint9_linear_89_65" x1="100.536" y1="104.39" x2="121.489" y2="82.3967" gradientUnits="userSpaceOnUse">
<stop stop-color="#7286C2"/>
<stop offset="1" stop-color="#6EA0D5"/>
</linearGradient>
</defs>
</svg>
